# xmcd
#
# Track frame offsets:
#	150
#	23288
#	46550
#	68163
#	90651
#	112007
#	133750
#	155613
#	183487
#	207346
#	216458
#	238562
#	266442
#
# Disc length: 3683 seconds
#
# Revision: 0
# Processed by: cddbd v1.5.2PL0 Copyright (c) Steve Scherf et al.
# Submitted via: audiograbber 1.83.01
#
DISCID=b10e610d
DTITLE=Various Artist - XMiX Urban and Club Series 173
DYEAR=2013
DGENRE=Urban
TTITLE0=Afrojack Feat. Chris Brown - As Your Friend
TTITLE1=will.i.am Feat. Justin Bieber - #thatPower
TTITLE2=Ne-Yo - Forever Now
TTITLE3=Drop City Yacht Club Feat. Jeremih - Crickets
TTITLE4=B. Smyth. Feat. 2 Chainz - Leggo
TTITLE5=J. Cole Feat. Miguel - Power Trip
TTITLE6=Macklemore and Ray Lewis Feat. Ray Dalton - Can't Hold Us
TTITLE7=B.o.B Feat. T.I. and Juicy J - We Still In This B**Ch
TTITLE8=Justin Timberlake - Like I Love You
TTITLE9=Daft Punk - #thatPower Vs. Harder, Better, Faster, Stronger (XMiX Mash-
TTITLE9=Up)
TTITLE10=Macklemore and Ryan Lewis Feat. Ray Dalton - Can't Hold Us (XMiX Transit
TTITLE10=ion 130-73 BPM)
TTITLE11=B.o.B Feat. T.I. and Juicy J - We Still In This B**Ch (XMiX Dirty Versio
TTITLE11=n)
TTITLE12=Drop City Yacht Club Feat. Jeremih - Crickets (XMiX Party Break)
EXTD=
EXTT0=
EXTT1=
EXTT2=
EXTT3=
EXTT4=
EXTT5=
EXTT6=
EXTT7=
EXTT8=
EXTT9=
EXTT10=
EXTT11=
EXTT12=
PLAYORDER=
